<svg width="377" height="1024" viewBox="0 0 377 1024" fill="none" xmlns="http://www.w3.org/2000/svg">
<path d="M0 -14.9855H377V1034H0V-14.9855Z" fill="#1B2028"/>
<mask id="mask0_209_1062" style="mask-type:alpha" maskUnits="userSpaceOnUse" x="0" y="-16" width="377" height="1049">
<path d="M0 -16H377V1032.99H0V-16Z" fill="#203690"/>
</mask>
<g mask="url(#mask0_209_1062)">
<g opacity="0.188">
<path d="M647.421 1933.91V-233.05H-234.541V1933.91H647.421Z" fill="url(#paint0_linear_209_1062)"/>
<g style="mix-blend-mode:hard-light" opacity="0.4">
<path d="M-517.132 1714.58C-308.441 1960.55 -17.5288 2016.47 132.639 1839.48C282.806 1662.48 235.364 1319.6 26.6728 1073.63C-182.018 827.658 -472.93 771.74 -623.098 948.734C-773.265 1125.73 -725.823 1468.61 -517.132 1714.58Z" stroke="#707070" stroke-width="3.624" stroke-miterlimit="10"/>
</g>
<g style="mix-blend-mode:hard-light" opacity="0.4">
<path d="M59.6916 1414.03C159.942 1532.19 299.689 1559.05 371.826 1474.03C443.963 1389.01 421.172 1224.29 320.922 1106.13C220.672 987.975 80.9246 961.113 8.78777 1046.14C-63.3491 1131.16 -40.5586 1295.87 59.6916 1414.03Z" stroke="#707070" stroke-width="3.624" stroke-miterlimit="10"/>
</g>
<g style="mix-blend-mode:hard-light" opacity="0.4">
<path d="M-370.749 726.693C-370.749 931.609 -269.334 1097.73 -144.231 1097.73C-19.1282 1097.73 82.2876 931.609 82.2876 726.693C82.2876 521.777 -19.1282 355.659 -144.231 355.659C-269.334 355.659 -370.749 521.777 -370.749 726.693Z" stroke="#707070" stroke-width="3.624" stroke-miterlimit="10"/>
</g>
<g style="mix-blend-mode:hard-light" opacity="0.4">
<path d="M-353.196 726.693C-353.196 915.729 -259.639 1068.97 -144.231 1068.97C-28.8228 1068.97 64.7339 915.729 64.7339 726.693C64.7339 537.656 -28.8228 384.412 -144.231 384.412C-259.639 384.412 -353.196 537.656 -353.196 726.693Z" stroke="#707070" stroke-width="3.624" stroke-miterlimit="10"/>
</g>
<g style="mix-blend-mode:hard-light" opacity="0.4">
<path d="M-226.831 824.049C-122.948 946.489 21.8624 974.324 96.6131 886.22C171.364 798.116 147.748 627.436 43.8651 504.995C-60.0175 382.555 -204.828 354.72 -279.579 442.824C-354.33 530.928 -330.714 701.608 -226.831 824.049Z" stroke="#707070" stroke-width="3.624" stroke-miterlimit="10"/>
</g>
<g style="mix-blend-mode:hard-light" opacity="0.4">
<path d="M-318.088 726.694C-318.088 883.971 -240.25 1011.47 -144.231 1011.47C-48.2122 1011.47 29.6263 883.971 29.6263 726.694C29.6263 569.417 -48.2122 441.918 -144.231 441.918C-240.25 441.918 -318.088 569.417 -318.088 726.694Z" stroke="#707070" stroke-width="3.624" stroke-miterlimit="10"/>
</g>
<path style="mix-blend-mode:hard-light" opacity="0.2" d="M-182.795 720.993C-158.839 791.49 -104.529 832.17 -61.4892 811.852C-18.4498 791.535 -2.97973 717.914 -26.9359 647.416C-50.892 576.918 -105.203 536.239 -148.242 556.557C-191.281 576.874 -206.751 650.495 -182.795 720.993Z" fill="url(#paint1_linear_209_1062)"/>
<path style="mix-blend-mode:hard-light" opacity="0.2" d="M-467.471 1656.05C-321.236 1828.41 -117.388 1867.59 -12.1619 1743.57C93.0639 1619.54 59.8198 1379.28 -86.4146 1206.92C-232.649 1034.56 -436.498 995.38 -541.723 1119.4C-646.949 1243.43 -613.705 1483.69 -467.471 1656.05Z" fill="url(#paint2_linear_209_1062)"/>
<path style="mix-blend-mode:hard-light" opacity="0.2" d="M-234.541 1896.07L220.671 1150.45C290.046 1036.81 290.046 852.573 220.671 738.938C151.296 625.302 38.8173 625.302 -30.5576 738.938L-234.538 1073.05L-234.541 1896.07Z" fill="url(#paint3_linear_209_1062)"/>
<path style="mix-blend-mode:hard-light" opacity="0.2" d="M-234.541 1241.18L288.496 384.454C327.786 320.096 327.786 215.756 288.496 151.4C249.206 87.0417 185.505 87.0417 146.217 151.4L-234.54 775.071L-234.541 1241.18Z" fill="url(#paint4_linear_209_1062)"/>
<path style="mix-blend-mode:hard-light" opacity="0.2" d="M-234.541 1352.76L242.117 572.002C262.262 539.003 262.262 485.505 242.117 452.507C221.975 419.511 189.312 419.511 169.166 452.507L-234.541 1113.77V1352.76Z" fill="url(#paint5_linear_209_1062)"/>
<path style="mix-blend-mode:hard-light" opacity="0.15" d="M-318.151 1751.76L515.769 385.81C523.106 373.787 523.106 354.297 515.769 342.277C508.429 330.254 496.53 330.254 489.192 342.277L-318.151 1664.69V1751.76Z" fill="url(#paint6_linear_209_1062)"/>
<g style="mix-blend-mode:hard-light" opacity="0.35">
<path d="M206.44 768.341C204.41 768.341 202.762 765.642 202.762 762.317C202.762 758.991 204.41 756.292 206.44 756.292C208.471 756.292 210.118 758.988 210.118 762.317C210.118 765.645 208.47 768.341 206.44 768.341Z" fill="#06D6A0"/>
</g>
<g style="mix-blend-mode:hard-light" opacity="0.4">
<path d="M638.222 585.479L187.789 1323.28" stroke="#707070" stroke-width="3.624" stroke-miterlimit="10"/>
</g>
<g style="mix-blend-mode:hard-light" opacity="0.4">
<path d="M108.188 297.284L-342.245 1035.09" stroke="#707070" stroke-width="3.624" stroke-miterlimit="10"/>
</g>
</g>
</g>
<defs>
<linearGradient id="paint0_linear_209_1062" x1="757.666" y1="-53.1926" x2="-726.132" y2="349.739" gradientUnits="userSpaceOnUse">
<stop/>
<stop offset="0.247" stop-color="#1B2028"/>
<stop offset="0.603" stop-color="#1B2028"/>
<stop offset="0.864" stop-color="#1B2028"/>
<stop offset="1" stop-color="#1B2028"/>
</linearGradient>
<linearGradient id="paint1_linear_209_1062" x1="-80.4018" y1="567.784" x2="-209.708" y2="740.42" gradientUnits="userSpaceOnUse">
<stop stop-color="#44FFDD"/>
<stop offset="0.072" stop-color="#44FFDD" stop-opacity="0.796"/>
<stop offset="0.148" stop-color="#44FFDD" stop-opacity="0.612"/>
<stop offset="0.229" stop-color="#44FFDD" stop-opacity="0.447"/>
<stop offset="0.313" stop-color="#44FFDD" stop-opacity="0.31"/>
<stop offset="0.401" stop-color="#44FFDD" stop-opacity="0.196"/>
<stop offset="0.495" stop-color="#44FFDD" stop-opacity="0.11"/>
<stop offset="0.598" stop-color="#44FFDD" stop-opacity="0.047"/>
<stop offset="0.715" stop-color="#44FFDD" stop-opacity="0.012"/>
<stop offset="0.878" stop-color="#44FFDD" stop-opacity="0"/>
</linearGradient>
<linearGradient id="paint2_linear_209_1062" x1="-329.514" y1="1051.54" x2="-466.626" y2="1764.87" gradientUnits="userSpaceOnUse">
<stop stop-color="#44FFDD"/>
<stop offset="0.072" stop-color="#44FFDD" stop-opacity="0.796"/>
<stop offset="0.148" stop-color="#44FFDD" stop-opacity="0.612"/>
<stop offset="0.229" stop-color="#44FFDD" stop-opacity="0.447"/>
<stop offset="0.313" stop-color="#44FFDD" stop-opacity="0.31"/>
<stop offset="0.401" stop-color="#44FFDD" stop-opacity="0.196"/>
<stop offset="0.495" stop-color="#44FFDD" stop-opacity="0.11"/>
<stop offset="0.598" stop-color="#44FFDD" stop-opacity="0.047"/>
<stop offset="0.715" stop-color="#44FFDD" stop-opacity="0.012"/>
<stop offset="0.878" stop-color="#44FFDD" stop-opacity="0"/>
</linearGradient>
<linearGradient id="paint3_linear_209_1062" x1="3035.66" y1="-291.721" x2="3654.74" y2="1.52267" gradientUnits="userSpaceOnUse">
<stop stop-color="#44FFDD"/>
<stop offset="0.072" stop-color="#44FFDD" stop-opacity="0.796"/>
<stop offset="0.148" stop-color="#44FFDD" stop-opacity="0.612"/>
<stop offset="0.229" stop-color="#44FFDD" stop-opacity="0.447"/>
<stop offset="0.313" stop-color="#44FFDD" stop-opacity="0.31"/>
<stop offset="0.401" stop-color="#44FFDD" stop-opacity="0.196"/>
<stop offset="0.495" stop-color="#44FFDD" stop-opacity="0.11"/>
<stop offset="0.598" stop-color="#44FFDD" stop-opacity="0.047"/>
<stop offset="0.715" stop-color="#44FFDD" stop-opacity="0.012"/>
<stop offset="0.878" stop-color="#44FFDD" stop-opacity="0"/>
</linearGradient>
<linearGradient id="paint4_linear_209_1062" x1="3467.79" y1="-923.391" x2="4159.74" y2="-460.078" gradientUnits="userSpaceOnUse">
<stop stop-color="#44FFDD"/>
<stop offset="0.072" stop-color="#44FFDD" stop-opacity="0.796"/>
<stop offset="0.148" stop-color="#44FFDD" stop-opacity="0.612"/>
<stop offset="0.229" stop-color="#44FFDD" stop-opacity="0.447"/>
<stop offset="0.313" stop-color="#44FFDD" stop-opacity="0.31"/>
<stop offset="0.401" stop-color="#44FFDD" stop-opacity="0.196"/>
<stop offset="0.495" stop-color="#44FFDD" stop-opacity="0.11"/>
<stop offset="0.598" stop-color="#44FFDD" stop-opacity="0.047"/>
<stop offset="0.715" stop-color="#44FFDD" stop-opacity="0.012"/>
<stop offset="0.878" stop-color="#44FFDD" stop-opacity="0"/>
</linearGradient>
<linearGradient id="paint5_linear_209_1062" x1="3646.98" y1="-752.534" x2="4254.66" y2="-265.322" gradientUnits="userSpaceOnUse">
<stop stop-color="#44FFDD"/>
<stop offset="0.072" stop-color="#44FFDD" stop-opacity="0.796"/>
<stop offset="0.148" stop-color="#44FFDD" stop-opacity="0.612"/>
<stop offset="0.229" stop-color="#44FFDD" stop-opacity="0.447"/>
<stop offset="0.313" stop-color="#44FFDD" stop-opacity="0.31"/>
<stop offset="0.401" stop-color="#44FFDD" stop-opacity="0.196"/>
<stop offset="0.495" stop-color="#44FFDD" stop-opacity="0.11"/>
<stop offset="0.598" stop-color="#44FFDD" stop-opacity="0.047"/>
<stop offset="0.715" stop-color="#44FFDD" stop-opacity="0.012"/>
<stop offset="0.878" stop-color="#44FFDD" stop-opacity="0"/>
</linearGradient>
<linearGradient id="paint6_linear_209_1062" x1="3534.8" y1="-1146.23" x2="4525.36" y2="-161.94" gradientUnits="userSpaceOnUse">
<stop stop-color="#44FFDD"/>
<stop offset="0.072" stop-color="#44FFDD" stop-opacity="0.796"/>
<stop offset="0.148" stop-color="#44FFDD" stop-opacity="0.612"/>
<stop offset="0.229" stop-color="#44FFDD" stop-opacity="0.447"/>
<stop offset="0.313" stop-color="#44FFDD" stop-opacity="0.31"/>
<stop offset="0.401" stop-color="#44FFDD" stop-opacity="0.196"/>
<stop offset="0.495" stop-color="#44FFDD" stop-opacity="0.11"/>
<stop offset="0.598" stop-color="#44FFDD" stop-opacity="0.047"/>
<stop offset="0.715" stop-color="#44FFDD" stop-opacity="0.012"/>
<stop offset="0.878" stop-color="#44FFDD" stop-opacity="0"/>
</linearGradient>
</defs>
</svg>
