<svg width="18" height="18" viewBox="0 0 18 18" fill="none" xmlns="http://www.w3.org/2000/svg">
<mask id="mask0_211_95" style="mask-type:luminance" maskUnits="userSpaceOnUse" x="1" y="2" width="16" height="13">
<path d="M1.39685 2.53357H16.6406V14.7258H1.39685V2.53357Z" fill="white"/>
</mask>
<g mask="url(#mask0_211_95)">
<path d="M16.4999 4.5187L14.6788 2.72573C14.4937 2.54292 14.1937 2.54292 14.0085 2.72573L6.62102 10.0007L4.09446 7.51401C3.91633 7.33823 3.59993 7.33823 3.4218 7.51401L1.5843 9.32339C1.39915 9.5062 1.39915 9.80151 1.5843 9.98432L6.26711 14.5945C6.35618 14.6835 6.47805 14.7328 6.60461 14.7328C6.72883 14.7328 6.85071 14.6835 6.93977 14.5945L16.4999 5.17964C16.589 5.09292 16.6406 4.97339 16.6406 4.84917C16.6406 4.72495 16.589 4.60776 16.4999 4.5187Z" fill="white"/>
</g>
</svg>
