<svg width="24" height="24" viewBox="0 0 24 24" fill="none" xmlns="http://www.w3.org/2000/svg">
<path d="M3.29594 20.602L9.65994 14.238M17.6739 11.408L15.7689 17.123C15.7385 17.2146 15.6865 17.2976 15.6172 17.3647C15.5479 17.4319 15.4634 17.4814 15.3709 17.509L3.69294 20.98C3.58773 21.0113 3.47597 21.0131 3.36981 20.9852C3.26365 20.9573 3.16717 20.9009 3.09087 20.822C3.01456 20.7431 2.96135 20.6448 2.93703 20.5378C2.91272 20.4308 2.91822 20.3191 2.95294 20.215L6.74494 8.84102C6.77212 8.75935 6.81655 8.68449 6.87521 8.62151C6.93388 8.55853 7.0054 8.50891 7.08494 8.47602L12.4719 6.25802C12.5815 6.21279 12.7019 6.201 12.8181 6.22413C12.9343 6.24727 13.0411 6.30429 13.1249 6.38802L17.5289 10.793C17.6079 10.8719 17.6633 10.9712 17.689 11.0799C17.7146 11.1885 17.7094 11.3022 17.6739 11.408Z" stroke="#06D6A0" stroke-width="1.5" stroke-linecap="round" stroke-linejoin="round"/>
<path d="M17.7918 11.056L20.6198 8.22699C20.9948 7.85194 21.2054 7.34332 21.2054 6.81299C21.2054 6.28266 20.9948 5.77405 20.6198 5.39899L18.4998 3.27699C18.3141 3.09119 18.0936 2.9438 17.8509 2.84324C17.6082 2.74268 17.3481 2.69092 17.0853 2.69092C16.8226 2.69092 16.5625 2.74268 16.3198 2.84324C16.0771 2.9438 15.8566 3.09119 15.6708 3.27699L12.8428 6.10599M11.7808 12.116C11.6415 11.9767 11.4761 11.8663 11.2941 11.7909C11.1121 11.7156 10.917 11.6768 10.72 11.6769C10.523 11.6769 10.3279 11.7158 10.1459 11.7912C9.96396 11.8666 9.79861 11.9772 9.65934 12.1165C9.52007 12.2558 9.40962 12.4212 9.33427 12.6032C9.25892 12.7853 9.22017 12.9803 9.22021 13.1773C9.22026 13.3743 9.25911 13.5694 9.33454 13.7514C9.40997 13.9334 9.52051 14.0987 9.65984 14.238C9.94124 14.5193 10.3228 14.6772 10.7207 14.6771C11.1186 14.677 11.5001 14.5189 11.7813 14.2375C12.0626 13.9561 12.2206 13.5745 12.2205 13.1766C12.2204 12.7788 12.0622 12.3973 11.7808 12.116Z" stroke="#06D6A0" stroke-width="1.5" stroke-linecap="round" stroke-linejoin="round"/>
</svg>
