<svg width="16" height="16" viewBox="0 0 16 16" fill="none" xmlns="http://www.w3.org/2000/svg">
<path fill-rule="evenodd" clip-rule="evenodd" d="M10.6459 0.646039C10.6924 0.599476 10.7475 0.562533 10.8083 0.537327C10.869 0.51212 10.9341 0.499146 10.9999 0.499146C11.0657 0.499146 11.1308 0.51212 11.1915 0.537327C11.2523 0.562533 11.3075 0.599476 11.3539 0.646039L15.3539 4.64604C15.4005 4.69248 15.4374 4.74766 15.4626 4.80841C15.4878 4.86915 15.5008 4.93427 15.5008 5.00004C15.5008 5.06581 15.4878 5.13093 15.4626 5.19167C15.4374 5.25242 15.4005 5.30759 15.3539 5.35404L13.4519 7.25604L12.6229 10.569C12.5599 10.8213 12.4323 11.0529 12.2528 11.241C12.0733 11.4291 11.848 11.5673 11.5989 11.642L1.25391 14.746L4.35791 4.40004C4.43272 4.1513 4.57085 3.92625 4.75877 3.74693C4.94668 3.5676 5.17794 3.44015 5.42991 3.37704L8.74291 2.54904L10.6459 0.646039ZM8.84591 3.55404L5.67291 4.34704C5.58868 4.36806 5.51138 4.41065 5.4486 4.47062C5.38583 4.53058 5.33975 4.60586 5.31491 4.68904L2.74491 13.254L11.3119 10.684C11.3946 10.659 11.4694 10.6129 11.529 10.5504C11.5886 10.4878 11.6309 10.4108 11.6519 10.327L12.4459 7.15304L8.84591 3.55404Z" fill="#06D6A0"/>
<path fill-rule="evenodd" clip-rule="evenodd" d="M2.83209 13.228L8.00009 9C8.19787 9 8.39121 8.94135 8.55566 8.83147C8.72011 8.72159 8.84829 8.56541 8.92397 8.38268C8.99966 8.19996 9.01946 7.99889 8.98088 7.80491C8.94229 7.61093 8.84705 7.43275 8.7072 7.29289C8.56735 7.15304 8.38916 7.0578 8.19518 7.01922C8.0012 6.98063 7.80014 7.00043 7.61741 7.07612C7.43468 7.15181 7.27851 7.27998 7.16862 7.44443C7.05874 7.60888 7.00009 7.80222 7.00009 8L2.77209 13.168L2.74609 13.254L2.83209 13.228Z" fill="#06D6A0"/>
</svg>
