<svg width="17" height="17" viewBox="0 0 17 17" fill="none" xmlns="http://www.w3.org/2000/svg">
<path fill-rule="evenodd" clip-rule="evenodd" d="M8.5 16C12.6421 16 16 12.6421 16 8.5C16 4.35786 12.6421 1 8.5 1C4.35786 1 1 4.35786 1 8.5C1 12.6421 4.35786 16 8.5 16ZM8.5 17C13.1944 17 17 13.1944 17 8.5C17 3.80558 13.1944 0 8.5 0C3.80558 0 0 3.80558 0 8.5C0 13.1944 3.80558 17 8.5 17Z" fill="#818B98"/>
<path d="M6.30273 5.16991C6.42673 5.05391 6.56273 4.94391 6.71073 4.83991C6.86273 4.73591 7.02673 4.64391 7.20273 4.56391C7.38273 4.48391 7.57473 4.42191 7.77873 4.37791C7.98673 4.32991 8.21073 4.30591 8.45073 4.30591C8.76673 4.30591 9.05873 4.35191 9.32673 4.44391C9.59873 4.53591 9.83273 4.66591 10.0287 4.83391C10.2247 5.00191 10.3787 5.20591 10.4907 5.44591C10.6027 5.68591 10.6587 5.95591 10.6587 6.25591C10.6587 6.55991 10.6127 6.82191 10.5207 7.04191C10.4327 7.26191 10.3187 7.45591 10.1787 7.62391C10.0427 7.78791 9.89273 7.93191 9.72873 8.05591C9.56873 8.17591 9.41673 8.28991 9.27273 8.39791C9.12873 8.50591 9.00473 8.61391 8.90073 8.72191C8.80073 8.82991 8.74273 8.94991 8.72673 9.08191L8.61873 9.99991H7.88673L7.81473 9.00391C7.79873 8.82391 7.83273 8.66791 7.91673 8.53591C8.00073 8.39991 8.11073 8.27391 8.24673 8.15791C8.38273 8.03791 8.53273 7.92191 8.69673 7.80991C8.86073 7.69391 9.01273 7.56591 9.15273 7.42591C9.29673 7.28591 9.41673 7.12791 9.51273 6.95191C9.60873 6.77191 9.65673 6.55791 9.65673 6.30991C9.65673 6.13791 9.62273 5.98191 9.55473 5.84191C9.48673 5.70191 9.39473 5.58391 9.27873 5.48791C9.16273 5.38791 9.02473 5.31191 8.86473 5.25991C8.70873 5.20791 8.54073 5.18191 8.36073 5.18191C8.11673 5.18191 7.90673 5.21191 7.73073 5.27191C7.55873 5.33191 7.41273 5.39791 7.29273 5.46991C7.17273 5.54191 7.07473 5.60791 6.99873 5.66791C6.92673 5.72791 6.86673 5.75791 6.81873 5.75791C6.71873 5.75791 6.64073 5.71191 6.58473 5.61991L6.30273 5.16991ZM7.47273 12.3399C7.47273 12.2359 7.49073 12.1379 7.52673 12.0459C7.56673 11.9539 7.61873 11.8739 7.68273 11.8059C7.75073 11.7379 7.83073 11.6839 7.92273 11.6439C8.01473 11.6039 8.11273 11.5839 8.21673 11.5839C8.32073 11.5839 8.41873 11.6039 8.51073 11.6439C8.60273 11.6839 8.68273 11.7379 8.75073 11.8059C8.81873 11.8739 8.87274 11.9539 8.91273 12.0459C8.95273 12.1379 8.97273 12.2359 8.97273 12.3399C8.97273 12.4479 8.95273 12.5479 8.91273 12.6399C8.87274 12.7279 8.81873 12.8059 8.75073 12.8739C8.68273 12.9419 8.60273 12.9939 8.51073 13.0299C8.41873 13.0699 8.32073 13.0899 8.21673 13.0899C8.11273 13.0899 8.01473 13.0699 7.92273 13.0299C7.83073 12.9939 7.75073 12.9419 7.68273 12.8739C7.61873 12.8059 7.56673 12.7279 7.52673 12.6399C7.49073 12.5479 7.47273 12.4479 7.47273 12.3399Z" fill="#818B98"/>
</svg>
