<svg width="40" height="40" viewBox="0 0 40 40" fill="none" xmlns="http://www.w3.org/2000/svg">
<path fill-rule="evenodd" clip-rule="evenodd" d="M20 40C31.0456 40 40 31.0456 40 20C40 8.9543 31.0456 0 20 0C8.9543 0 0 8.9543 0 20C0 31.0456 8.9543 40 20 40ZM20 36C28.8366 36 36 28.8366 36 20C36 11.1634 28.8366 4 20 4C11.1634 4 4 11.1634 4 20C4 28.8366 11.1634 36 20 36ZM12.5607 27.5606C11.9749 26.9748 11.0251 26.9748 10.4393 27.5606C9.85356 28.1464 9.85356 29.0962 10.4393 29.682L19.4394 38.682C20.0252 39.2678 20.9748 39.2678 21.5606 38.682L30.5606 29.682C31.1464 29.0962 31.1464 28.1464 30.5606 27.5606C29.9748 26.9748 29.0252 26.9748 28.4394 27.5606L20 36L11.5607 27.5606C10.9749 26.9748 10.0251 26.9748 9.43934 27.5606C8.85356 28.1464 8.85356 29.0962 9.43934 29.682L18.4394 38.682C19.0252 39.2678 19.9748 39.2678 20.5606 38.682L29.5606 29.682C30.1464 29.0962 30.1464 28.1464 29.5606 27.5606C28.9748 26.9748 28.0252 26.9748 27.4394 27.5606L20 35L12.5607 27.5606ZM14 20H26C27.1046 20 28 19.1046 28 18C28 16.8954 27.1046 16 26 16H14C12.8954 16 12 16.8954 12 18C12 19.1046 12.8954 20 14 20Z" fill="white"/>
</svg>
