<svg width="40" height="40" viewBox="0 0 40 40" fill="none" xmlns="http://www.w3.org/2000/svg">
<path fill-rule="evenodd" clip-rule="evenodd" d="M20 40C31.0456 40 40 31.0456 40 20C40 8.9543 31.0456 0 20 0C8.9543 0 0 8.9543 0 20C0 31.0456 8.9543 40 20 40ZM20 36C28.8366 36 36 28.8366 36 20C36 11.1634 28.8366 4 20 4C11.1634 4 4 11.1634 4 20C4 28.8366 11.1634 36 20 36ZM14 20H26C27.1046 20 28 19.1046 28 18C28 16.8954 27.1046 16 26 16H14C12.8954 16 12 16.8954 12 18C12 19.1046 12.8954 20 14 20ZM14 24H26C27.1046 24 28 23.1046 28 22C28 20.8954 27.1046 20 26 20H14C12.8954 20 12 20.8954 12 22C12 23.1046 12.8954 24 14 24ZM14 28H22C23.1046 28 24 27.1046 24 26C24 24.8954 23.1046 24 22 24H14C12.8954 24 12 24.8954 12 26C12 27.1046 12.8954 28 14 28Z" fill="#06D6A0"/>
</svg>
