<svg width="25" height="17" viewBox="0 0 25 17" fill="none" xmlns="http://www.w3.org/2000/svg">
<path d="M20.3117 7.37578C20.463 6.95971 20.5765 6.54364 20.5765 6.05193C20.5765 4.04723 18.95 2.42078 16.9454 2.42078C16.1889 2.42078 15.4702 2.64773 14.9028 3.0638C13.8816 1.24822 11.9147 1.49012e-05 9.68306 1.49012e-05C6.31668 1.49012e-05 3.63115 2.72338 3.63115 6.05193C3.63115 6.1654 3.63115 6.27887 3.63115 6.39235C1.51298 7.11101 0 9.15353 0 11.4986C0 14.5246 2.42076 16.9454 5.44672 16.9454H19.3661C22.0138 16.9454 24.2076 14.7894 24.2076 12.1038C24.2076 9.79655 22.5434 7.82968 20.3117 7.37578ZM14.865 9.68307H12.4064V13.9194C12.4064 14.2598 12.1038 14.5246 11.8012 14.5246H9.98565C9.64523 14.5246 9.38046 14.2598 9.38046 13.9194V9.68307H6.88405C6.35451 9.68307 6.08974 9.04006 6.46798 8.66181L10.4395 4.69025C10.6665 4.4633 11.0826 4.4633 11.3095 4.69025L15.2811 8.66181C15.6593 9.04006 15.3946 9.68307 14.865 9.68307Z" fill="white"/>
</svg>
