<svg width="15" height="17" viewBox="0 0 15 17" fill="none" xmlns="http://www.w3.org/2000/svg">
<path d="M10.2436 9.91739C11.4398 9.91739 12.462 10.3524 13.3102 11.2223C14.1802 12.0705 14.6151 13.0927 14.6151 14.2889V15.1371C14.6151 15.5721 14.4629 15.9418 14.1584 16.2463C13.8539 16.5507 13.4842 16.703 13.0492 16.703H1.56591C1.13093 16.703 0.761204 16.5507 0.456723 16.2463C0.152241 15.9418 0 15.5721 0 15.1371V14.2889C0 13.0927 0.4241 12.0705 1.2723 11.2223C2.14225 10.3524 3.17531 9.91739 4.37149 9.91739C4.65422 9.91739 5.06745 10.0044 5.61116 10.1784C6.17663 10.3524 6.7421 10.4394 7.30756 10.4394C7.87303 10.4394 8.43849 10.3524 9.00396 10.1784C9.56943 10.0044 9.98265 9.91739 10.2436 9.91739ZM13.0492 15.1371V14.2889C13.0492 13.5277 12.7665 12.8752 12.201 12.3315C11.6573 11.766 11.0048 11.4833 10.2436 11.4833C10.1784 11.4833 9.83041 11.5703 9.1997 11.7443C8.59074 11.9183 7.96002 12.0053 7.30756 12.0053C6.6551 12.0053 6.01351 11.9183 5.3828 11.7443C4.77384 11.5703 4.43673 11.4833 4.37149 11.4833C3.61028 11.4833 2.94695 11.766 2.38148 12.3315C1.83776 12.8752 1.56591 13.5277 1.56591 14.2889V15.1371H13.0492ZM10.6351 8.02526C9.72167 8.9387 8.61248 9.39543 7.30756 9.39543C6.00264 9.39543 4.89346 8.9387 3.98001 8.02526C3.06657 7.11181 2.60984 6.00263 2.60984 4.69771C2.60984 3.39278 3.06657 2.2836 3.98001 1.37016C4.89346 0.456711 6.00264 -1.19209e-05 7.30756 -1.19209e-05C8.61248 -1.19209e-05 9.72167 0.456711 10.6351 1.37016C11.5486 2.2836 12.0053 3.39278 12.0053 4.69771C12.0053 6.00263 11.5486 7.11181 10.6351 8.02526ZM9.52593 2.47934C8.91697 1.87038 8.17751 1.56589 7.30756 1.56589C6.43761 1.56589 5.69816 1.87038 5.0892 2.47934C4.48023 3.0883 4.17575 3.82776 4.17575 4.69771C4.17575 5.56765 4.48023 6.30711 5.0892 6.91607C5.69816 7.52504 6.43761 7.82952 7.30756 7.82952C8.17751 7.82952 8.91697 7.52504 9.52593 6.91607C10.1349 6.30711 10.4394 5.56765 10.4394 4.69771C10.4394 3.82776 10.1349 3.0883 9.52593 2.47934Z" fill="white"/>
</svg>
